<mxfile host="app.diagrams.net" modified="2023-01-30T14:58:28.201Z" agent="5.0 (Windows NT 10.0; Win64; x64) AppleWebKit/537.36 (KHTML, like Gecko) Chrome/109.0.0.0 Safari/537.36" etag="6N6h6TnnAsMNOWXKkX5F" version="20.8.13" type="github">
  <diagram id="C5RBs43oDa-KdzZeNtuy" name="Page-1">
    <mxGraphModel dx="2074" dy="1124" grid="1" gridSize="10" guides="1" tooltips="1" connect="1" arrows="1" fold="1" page="1" pageScale="1" pageWidth="827" pageHeight="1169" math="0" shadow="0">
      <root>
        <mxCell id="WIyWlLk6GJQsqaUBKTNV-0" />
        <mxCell id="WIyWlLk6GJQsqaUBKTNV-1" parent="WIyWlLk6GJQsqaUBKTNV-0" />
        <mxCell id="uWypOpxTlNG1g023V_Ra-0" value="End" style="rounded=1;whiteSpace=wrap;html=1;" vertex="1" parent="WIyWlLk6GJQsqaUBKTNV-1">
          <mxGeometry x="90" y="620" width="120" height="60" as="geometry" />
        </mxCell>
        <mxCell id="uWypOpxTlNG1g023V_Ra-1" style="edgeStyle=orthogonalEdgeStyle;rounded=0;orthogonalLoop=1;jettySize=auto;html=1;" edge="1" parent="WIyWlLk6GJQsqaUBKTNV-1" source="uWypOpxTlNG1g023V_Ra-2" target="uWypOpxTlNG1g023V_Ra-5">
          <mxGeometry relative="1" as="geometry" />
        </mxCell>
        <mxCell id="uWypOpxTlNG1g023V_Ra-2" value="Start" style="rounded=1;whiteSpace=wrap;html=1;" vertex="1" parent="WIyWlLk6GJQsqaUBKTNV-1">
          <mxGeometry x="90" y="120" width="120" height="60" as="geometry" />
        </mxCell>
        <mxCell id="uWypOpxTlNG1g023V_Ra-3" value="Найти сумму двух чисел" style="text;html=1;align=center;verticalAlign=middle;resizable=0;points=[];autosize=1;strokeColor=none;fillColor=none;" vertex="1" parent="WIyWlLk6GJQsqaUBKTNV-1">
          <mxGeometry x="270" y="135" width="160" height="30" as="geometry" />
        </mxCell>
        <mxCell id="uWypOpxTlNG1g023V_Ra-4" style="edgeStyle=orthogonalEdgeStyle;rounded=0;orthogonalLoop=1;jettySize=auto;html=1;entryX=0.444;entryY=0;entryDx=0;entryDy=0;entryPerimeter=0;" edge="1" parent="WIyWlLk6GJQsqaUBKTNV-1" source="uWypOpxTlNG1g023V_Ra-5" target="uWypOpxTlNG1g023V_Ra-7">
          <mxGeometry relative="1" as="geometry" />
        </mxCell>
        <mxCell id="uWypOpxTlNG1g023V_Ra-5" value="# comment&lt;br&gt;a, b&lt;br&gt;# a - first number&lt;br&gt;b - second number" style="shape=parallelogram;perimeter=parallelogramPerimeter;whiteSpace=wrap;html=1;fixedSize=1;" vertex="1" parent="WIyWlLk6GJQsqaUBKTNV-1">
          <mxGeometry x="50" y="240" width="200" height="70" as="geometry" />
        </mxCell>
        <mxCell id="uWypOpxTlNG1g023V_Ra-6" style="edgeStyle=orthogonalEdgeStyle;rounded=0;orthogonalLoop=1;jettySize=auto;html=1;" edge="1" parent="WIyWlLk6GJQsqaUBKTNV-1" source="uWypOpxTlNG1g023V_Ra-7" target="uWypOpxTlNG1g023V_Ra-11">
          <mxGeometry relative="1" as="geometry">
            <Array as="points">
              <mxPoint x="150" y="450" />
              <mxPoint x="150" y="450" />
            </Array>
          </mxGeometry>
        </mxCell>
        <mxCell id="uWypOpxTlNG1g023V_Ra-7" value="sum = a + b&lt;br&gt;# Результат хранится в переменной sum" style="rounded=0;whiteSpace=wrap;html=1;" vertex="1" parent="WIyWlLk6GJQsqaUBKTNV-1">
          <mxGeometry x="70" y="380" width="180" height="60" as="geometry" />
        </mxCell>
        <mxCell id="uWypOpxTlNG1g023V_Ra-8" value="Ввод данных" style="text;html=1;align=center;verticalAlign=middle;resizable=0;points=[];autosize=1;strokeColor=none;fillColor=none;" vertex="1" parent="WIyWlLk6GJQsqaUBKTNV-1">
          <mxGeometry x="320" y="260" width="100" height="30" as="geometry" />
        </mxCell>
        <mxCell id="uWypOpxTlNG1g023V_Ra-9" value="Действие" style="text;html=1;align=center;verticalAlign=middle;resizable=0;points=[];autosize=1;strokeColor=none;fillColor=none;" vertex="1" parent="WIyWlLk6GJQsqaUBKTNV-1">
          <mxGeometry x="274" y="395" width="80" height="30" as="geometry" />
        </mxCell>
        <mxCell id="uWypOpxTlNG1g023V_Ra-10" style="edgeStyle=orthogonalEdgeStyle;rounded=0;orthogonalLoop=1;jettySize=auto;html=1;entryX=0.5;entryY=0;entryDx=0;entryDy=0;" edge="1" parent="WIyWlLk6GJQsqaUBKTNV-1" source="uWypOpxTlNG1g023V_Ra-11" target="uWypOpxTlNG1g023V_Ra-0">
          <mxGeometry relative="1" as="geometry" />
        </mxCell>
        <mxCell id="uWypOpxTlNG1g023V_Ra-11" value="print(sum)&lt;br&gt;# sum = a + b" style="shape=document;whiteSpace=wrap;html=1;boundedLbl=1;" vertex="1" parent="WIyWlLk6GJQsqaUBKTNV-1">
          <mxGeometry x="90" y="485" width="120" height="80" as="geometry" />
        </mxCell>
        <mxCell id="uWypOpxTlNG1g023V_Ra-12" value="Результат" style="text;html=1;align=center;verticalAlign=middle;resizable=0;points=[];autosize=1;strokeColor=none;fillColor=none;" vertex="1" parent="WIyWlLk6GJQsqaUBKTNV-1">
          <mxGeometry x="274" y="500" width="80" height="30" as="geometry" />
        </mxCell>
        <mxCell id="uWypOpxTlNG1g023V_Ra-13" value="&amp;nbsp;Цикл или условие" style="rhombus;whiteSpace=wrap;html=1;" vertex="1" parent="WIyWlLk6GJQsqaUBKTNV-1">
          <mxGeometry x="480" y="235" width="80" height="80" as="geometry" />
        </mxCell>
      </root>
    </mxGraphModel>
  </diagram>
</mxfile>
